<svg width="74" height="94" viewBox="0 0 74 94" fill="none" xmlns="http://www.w3.org/2000/svg">
<g filter="url(#filter0_i_2_2)">
<path d="M29.125 94H0.397728V0.909088H30.3977C39.428 0.909088 47.1553 2.77273 53.5795 6.5C60.0038 10.197 64.928 15.5151 68.3523 22.4545C71.7765 29.3636 73.4886 37.6364 73.4886 47.2727C73.4886 56.9697 71.7614 65.3182 68.3068 72.3182C64.8523 79.2879 59.822 84.6515 53.2159 88.4091C46.6099 92.1364 38.5795 94 29.125 94ZM11.6705 84H28.3977C36.0947 84 42.4735 82.5152 47.5341 79.5455C52.5947 76.5758 56.3674 72.3485 58.8523 66.8636C61.3371 61.3788 62.5795 54.8485 62.5795 47.2727C62.5795 39.7576 61.3523 33.2879 58.8977 27.8636C56.4432 22.4091 52.7765 18.2273 47.8977 15.3182C43.0189 12.3788 36.9432 10.9091 29.6705 10.9091H11.6705V84Z" fill="#755B19"/>
</g>
<defs>
<filter id="filter0_i_2_2" x="0.397728" y="0.909088" width="73.0909" height="97.0909" filterUnits="userSpaceOnUse" color-interpolation-filters="sRGB">
<feFlood flood-opacity="0" result="BackgroundImageFix"/>
<feBlend mode="normal" in="SourceGraphic" in2="BackgroundImageFix" result="shape"/>
<feColorMatrix in="SourceAlpha" type="matrix" values="0 0 0 0 0 0 0 0 0 0 0 0 0 0 0 0 0 0 127 0" result="hardAlpha"/>
<feOffset dy="4"/>
<feGaussianBlur stdDeviation="2"/>
<feComposite in2="hardAlpha" operator="arithmetic" k2="-1" k3="1"/>
<feColorMatrix type="matrix" values="0 0 0 0 0 0 0 0 0 0 0 0 0 0 0 0 0 0 0.25 0"/>
<feBlend mode="normal" in2="shape" result="effect1_innerShadow_2_2"/>
</filter>
</defs>
</svg>
